<svg xmlns="http://www.w3.org/2000/svg" viewBox="0 0 512 512" role="img" aria-label="Sealmetrics">
  <rect width="512" height="512" fill="#111412"/>
  <svg x="58" y="34" width="396" height="444" viewBox="23.848 21.848 114.25 128.3" preserveAspectRatio="xMidYMid meet"><path d="M 123.50 23.88 C 122.75 23.35, 121.63 22.82, 118.81 22.56 C 116.00 22.30, 108.48 22.05, 103.38 22.00 C 98.27 21.95, 86.84 22.03, 82.31 22.19 C 77.78 22.34, 73.41 22.45, 71.00 23.12 C 68.59 23.80, 67.82 24.59, 65.12 27.00 C 62.43 29.41, 55.98 35.92, 51.75 40.38 C 47.52 44.83, 38.41 54.80, 34.88 58.81 C 31.34 62.82, 27.92 66.98, 26.50 69.00 C 25.08 71.02, 25.10 71.92, 24.75 73.25 C 24.40 74.58, 24.07 76.96, 24.00 78.50 C 23.93 80.04, 24.04 82.78, 24.25 84.25 C 24.46 85.72, 25.04 87.80, 25.50 89.00 C 25.96 90.20, 26.95 91.85, 27.56 92.81 C 28.18 93.78, 29.16 95.11, 29.88 95.88 C 30.59 96.64, 31.73 97.67, 32.69 98.31 C 33.65 98.96, 35.50 99.95, 36.75 100.50 C 38.00 101.05, 40.33 101.90, 41.62 102.25 C 42.92 102.60, 44.81 102.93, 46.00 103.00 C 47.19 103.07, 48.90 102.96, 50.12 102.75 C 51.35 102.54, 52.96 102.50, 54.75 101.50 C 56.54 100.50, 58.86 99.44, 62.94 95.62 C 67.02 91.81, 77.18 81.36, 83.88 74.25 C 90.57 67.14, 105.25 51.07, 110.75 44.88 C 116.25 38.68, 121.24 32.60, 123.12 30.00 C 125.01 27.40, 124.14 27.17, 124.19 26.31 C 124.24 25.45, 124.25 24.40, 123.50 23.88 Z" fill="#FFFDF7"/><path d="M 129.12 78.00 C 128.28 77.41, 126.78 76.49, 125.88 76.00 C 124.97 75.51, 123.53 74.85, 122.62 74.50 C 121.72 74.15, 120.28 73.71, 119.38 73.50 C 118.47 73.29, 117.03 73.07, 116.12 73.00 C 115.22 72.93, 113.72 72.97, 112.88 73.00 C 112.03 73.03, 110.79 73.11, 110.06 73.19 C 109.34 73.27, 108.29 73.43, 107.69 73.56 C 107.08 73.69, 106.23 73.94, 105.75 74.12 C 105.27 74.31, 105.16 74.11, 104.25 74.88 C 103.34 75.64, 101.14 77.73, 99.25 79.62 C 97.36 81.52, 93.62 85.36, 90.75 88.38 C 87.88 91.39, 82.60 97.00, 78.75 101.12 C 74.90 105.25, 67.05 113.73, 63.25 117.88 C 59.45 122.02, 54.34 127.69, 51.62 130.75 C 48.91 133.81, 45.50 137.77, 43.88 139.75 C 42.25 141.73, 40.54 143.98, 40.00 144.88 C 39.46 145.77, 39.98 145.80, 40.00 146.12 C 40.02 146.45, 40.07 146.92, 40.12 147.19 C 40.18 147.46, 40.29 147.84, 40.38 148.06 C 40.46 148.28, 40.63 148.58, 40.75 148.75 C 40.87 148.92, 40.68 149.13, 41.25 149.25 C 41.82 149.37, 43.39 149.54, 44.81 149.62 C 46.24 149.71, 49.15 149.82, 51.44 149.88 C 53.72 149.93, 57.98 149.98, 61.12 150.00 C 64.27 150.02, 70.69 150.03, 73.88 150.00 C 77.06 149.97, 81.46 149.85, 83.88 149.75 C 86.29 149.65, 89.48 149.43, 91.12 149.25 C 92.77 149.07, 94.75 148.75, 95.62 148.50 C 96.50 148.25, 96.63 148.09, 97.38 147.50 C 98.12 146.91, 99.69 145.47, 100.94 144.25 C 102.19 143.03, 104.55 140.60, 106.31 138.75 C 108.07 136.90, 111.23 133.49, 113.50 131.00 C 115.77 128.51, 120.27 123.56, 122.50 121.00 C 124.73 118.44, 127.78 114.78, 129.44 112.69 C 131.09 110.60, 133.24 107.68, 134.31 106.06 C 135.39 104.44, 136.63 102.27, 137.12 101.12 C 137.62 99.98, 137.74 98.78, 137.88 97.88 C 138.01 96.97, 138.12 95.57, 138.12 94.69 C 138.12 93.80, 138.01 92.43, 137.88 91.56 C 137.74 90.70, 137.41 89.35, 137.12 88.50 C 136.84 87.65, 136.29 86.31, 135.88 85.50 C 135.46 84.69, 134.69 83.48, 134.12 82.75 C 133.56 82.02, 132.57 80.92, 131.88 80.25 C 131.18 79.58, 129.97 78.59, 129.12 78.00 Z" fill="#CBFF3D"/></svg>
</svg>
